# xmcd CD database file
#
# Track frame offsets:
#	182
#	25612
#	37577
#	60637
#	67317
#	87362
#	128065
#	143097
#	181647
#	207057
#
# Disc length: 3208 seconds
#
# Revision: 0
# Processed by: cddbd v1.5.1PL0 Copyright (c) Steve Scherf et al.
# Submitted via: CDex 1.50beta10
#
DISCID=7c0c860a
DTITLE=Willie Dixon and The Chicago Allstars - Good Advice
DYEAR=1998
DGENRE=Blues
TTITLE0=Chicago Allstars Boogie
TTITLE1=Tellin' The Blues
TTITLE2=Good Advice
TTITLE3=Introduction
TTITLE4=Built For Comfort
TTITLE5=Rock Me
TTITLE6=I Don't Trust Nobody
TTITLE7=So Hard To Leave You Alone
TTITLE8=You Don't Have To Go
TTITLE9=Rock The House
EXTD=YEAR: 1998
EXTT0=
EXTT1=
EXTT2=
EXTT3=
EXTT4=
EXTT5=
EXTT6=
EXTT7=
EXTT8=
EXTT9=
PLAYORDER=
